<svg xmlns:dc="http://purl.org/dc/elements/1.1/" xmlns:cc="http://creativecommons.org/ns#" xmlns:rdf="http://www.w3.org/1999/02/22-rdf-syntax-ns#" xmlns:svg="http://www.w3.org/2000/svg" xmlns="http://www.w3.org/2000/svg" xmlns:sodipodi="http://sodipodi.sourceforge.net/DTD/sodipodi-0.dtd" xmlns:inkscape="http://www.inkscape.org/namespaces/inkscape" version="1.1" x="0px" y="0px" viewBox="0 0 100 125"><g transform="translate(0,-952.36218)"><path style="text-indent:0;text-transform:none;direction:ltr;block-progression:tb;baseline-shift:baseline;color:#000000;enable-background:accumulate;" d="M 7.8125,966.38235 A 1.0001,0.99981985 0 0 0 7,967.38207 l 0,57.98373 a 1.0001,0.99981985 0 0 0 0.125,0.4999 l 7,11.9966 a 1.0001,0.99981985 0 0 0 1.75,0 l 7,-11.9966 A 1.0001,0.99981985 0 0 0 23,1025.3658 l 0,-57.98373 a 1.0001,0.99981985 0 0 0 -1,-0.99972 l -14,0 a 1.0001,0.99981985 0 0 0 -0.1875,0 z m 28,0 A 1.0001,0.99981985 0 0 0 35,967.38207 l 0,69.98043 a 1.0001,0.99981985 0 0 0 1,0.9997 l 56,0 a 1.0001,0.99981985 0 0 0 1,-0.9997 l 0,-69.98043 a 1.0001,0.99981985 0 0 0 -1,-0.99972 l -25,0 a 1.0001,0.99981985 0 1 0 0,1.99944 l 24,0 0,67.98091 -54,0 0,-67.98091 24,0 a 1.0001,0.99981985 0 1 0 0,-1.99944 l -25,0 a 1.0001,0.99981985 0 0 0 -0.1875,0 z M 9,968.38179 l 12,0 0,5.99832 -12,0 0,-5.99832 z m 0,7.99776 12,0 0,47.98655 -12,0 0,-47.98655 z m 35.8125,9.9972 A 1.0043849,1.0041036 0 1 0 45,988.37619 l 24,0 a 1.0001,0.99981985 0 1 0 0,-1.99944 l -24,0 a 1.0001,0.99981985 0 0 0 -0.1875,0 z m 0,9.9972 A 1.0043849,1.0041036 0 1 0 45,998.37339 l 38,0 a 1.0001,0.99981985 0 1 0 0,-1.99944 l -38,0 a 1.0001,0.99981985 0 0 0 -0.1875,0 z m 0,9.99715 A 1.0043849,1.0041036 0 1 0 45,1008.3706 l 38,0 a 1.0001,0.99981985 0 1 0 0,-1.9995 l -38,0 a 1.0001,0.99981985 0 0 0 -0.1875,0 z m 0,9.9972 A 1.0043849,1.0041036 0 0 0 45,1018.3678 l 38,0 a 1.0001,0.99981985 0 1 0 0,-1.9995 l -38,0 a 1.0001,0.99981985 0 0 0 -0.1875,0 z m -35.03125,9.9972 10.4375,0 -5.21875,8.9663 -5.21875,-8.9663 z" fill="#000000" fill-opacity="1" stroke="none" marker="none" visibility="visible" display="inline" overflow="visible"/></g><text x="0" y="115" fill="#000000" font-size="5px" font-weight="bold" font-family="'Helvetica Neue', Helvetica, Arial-Unicode, Arial, Sans-serif">Created by arejoenah</text><text x="0" y="120" fill="#000000" font-size="5px" font-weight="bold" font-family="'Helvetica Neue', Helvetica, Arial-Unicode, Arial, Sans-serif">from the Noun Project</text></svg>